<svg xmlns="http://www.w3.org/2000/svg" viewBox="0 0 800 600" width="100%" height="100%">
  <defs>
    <linearGradient id="bgGrad" x1="0%" y1="0%" x2="100%" y2="100%">
      <stop offset="0%" stop-color="#240508"/>
      <stop offset="50%" stop-color="#450A12"/>
      <stop offset="100%" stop-color="#1A0205"/>
    </linearGradient>
    <linearGradient id="goldGrad" x1="0%" y1="0%" x2="100%" y2="100%">
      <stop offset="0%" stop-color="#FFE082"/>
      <stop offset="35%" stop-color="#FFD54F"/>
      <stop offset="70%" stop-color="#FFA000"/>
      <stop offset="100%" stop-color="#D4AF37"/>
    </linearGradient>
    <linearGradient id="deepGold" x1="0%" y1="0%" x2="0%" y2="100%">
      <stop offset="0%" stop-color="#FFF8E1"/>
      <stop offset="40%" stop-color="#FFD54F"/>
      <stop offset="100%" stop-color="#B8860B"/>
    </linearGradient>
    <linearGradient id="flameGrad" x1="0%" y1="100%" x2="0%" y2="0%">
      <stop offset="0%" stop-color="#D32F2F"/>
      <stop offset="40%" stop-color="#FF9800"/>
      <stop offset="80%" stop-color="#FFEB3B"/>
      <stop offset="100%" stop-color="#FFFDE7"/>
    </linearGradient>
    <radialGradient id="haloGlow" cx="50%" cy="50%" r="50%">
      <stop offset="0%" stop-color="#FFD54F" stop-opacity="0.6"/>
      <stop offset="60%" stop-color="#D4AF37" stop-opacity="0.2"/>
      <stop offset="100%" stop-color="#3E070D" stop-opacity="0"/>
    </radialGradient>
    <filter id="glow" x="-20%" y="-20%" width="140%" height="140%">
      <feGaussianBlur stdDeviation="8" result="blur"/>
      <feComposite in="SourceGraphic" in2="blur" operator="over"/>
    </filter>
    <filter id="softGlow" x="-10%" y="-10%" width="120%" height="120%">
      <feGaussianBlur stdDeviation="4" result="blur"/>
      <feComposite in="SourceGraphic" in2="blur" operator="over"/>
    </filter>
  </defs>
  
  <!-- Canvas Background -->
  <rect width="800" height="600" fill="url(#bgGrad)"/>
  
  <!-- Subtle Ornamental Outer Border -->
  <rect x="16" y="16" width="768" height="568" rx="16" fill="none" stroke="url(#goldGrad)" stroke-width="2" stroke-opacity="0.5"/>
  <rect x="24" y="24" width="752" height="552" rx="12" fill="none" stroke="url(#goldGrad)" stroke-width="1" stroke-opacity="0.3" stroke-dasharray="6,4"/>

  <!-- Corner Cornerstones -->
  <circle cx="24" cy="24" r="6" fill="#D4AF37"/>
  <circle cx="776" cy="24" r="6" fill="#D4AF37"/>
  <circle cx="24" cy="576" r="6" fill="#D4AF37"/>
  <circle cx="776" cy="576" r="6" fill="#D4AF37"/>
  
  
  <circle cx="400" cy="240" r="190" fill="url(#haloGlow)"/>

  <!-- Majestic Multi-Tiered Brass Karpoora Harathi Lamp -->
  <g transform="translate(400, 300)">
    <!-- Base & Handle -->
    <path d="M 0 160 L -150 160 Q -170 160 -170 140 Q -170 120 -150 120 L 0 120 Z" fill="url(#deepGold)"/>
    <ellipse cx="0" cy="140" rx="50" ry="15" fill="url(#goldGrad)"/>
    <!-- Pillar -->
    <rect x="-15" y="0" width="30" height="140" fill="url(#deepGold)"/>

    <!-- Tier 3 (Bottom Tray - 7 flames) -->
    <ellipse cx="0" cy="90" rx="140" ry="18" fill="url(#goldGrad)"/>
    <!-- Tier 2 (Middle Tray - 5 flames) -->
    <ellipse cx="0" cy="40" rx="100" ry="14" fill="url(#goldGrad)"/>
    <!-- Tier 1 (Top Tray - 3 flames) -->
    <ellipse cx="0" cy="-5" rx="60" ry="10" fill="url(#goldGrad)"/>
    <!-- Apex Camphor Cup (Main Maha Harathi) -->
    <ellipse cx="0" cy="-45" rx="30" ry="8" fill="url(#deepGold)"/>

    <!-- Radiant Camphor Flames -->
    <!-- Apex Flame -->
    <path d="M 0 -45 Q 12 -80 0 -115 Q -12 -80 0 -45 Z" fill="url(#flameGrad)" filter="url(#glow)"/>
    <!-- Tier 1 Flames -->
    <path d="M -40 -10 Q -34 -35 -40 -55 Q -46 -35 -40 -10 Z" fill="url(#flameGrad)" filter="url(#softGlow)"/>
    <path d="M 40 -10 Q 46 -35 40 -55 Q 34 -35 40 -10 Z" fill="url(#flameGrad)" filter="url(#softGlow)"/>
    <!-- Tier 2 Flames -->
    <path d="M -80 35 Q -74 15 -80 -5 Q -86 15 -80 35 Z" fill="url(#flameGrad)" filter="url(#softGlow)"/>
    <path d="M 80 35 Q 86 15 80 -5 Q 74 15 80 35 Z" fill="url(#flameGrad)" filter="url(#softGlow)"/>
    <!-- Tier 3 Flames -->
    <path d="M -120 85 Q -114 65 -120 45 Q -126 65 -120 85 Z" fill="url(#flameGrad)" filter="url(#softGlow)"/>
    <path d="M 120 85 Q 126 65 120 45 Q 114 65 120 85 Z" fill="url(#flameGrad)" filter="url(#softGlow)"/>
  </g>

  <!-- Title Plate -->
  <rect x="180" y="505" width="440" height="65" rx="14" fill="#31070C" stroke="url(#goldGrad)" stroke-width="2"/>
  <text x="400" y="532" fill="#FFE082" font-family="serif" font-size="20" font-weight="bold" text-anchor="middle" letter-spacing="2">॥ మహా మంగళ హారతి ॥</text>
  <text x="400" y="555" fill="#FFD54F" font-family="sans-serif" font-size="12" font-weight="bold" text-anchor="middle" letter-spacing="3">MAHA MANGALA HARATHI - CAMPHOR FLAME</text>

</svg>